<svg width="561" height="441" viewBox="0 0 561 441" fill="none" xmlns="http://www.w3.org/2000/svg">
<path d="M160.416 113.856L61.92 305.376H91.872C106.848 305.376 120.096 300.384 131.616 290.4C143.328 280.416 150.336 264.576 152.64 242.88H159.264C158.688 249.408 158.4 257.856 158.4 268.224C158.4 285.888 159.072 300.48 160.416 312C146.208 311.424 122.304 311.136 88.704 311.136C52.992 311.136 27.168 311.424 11.232 312V306.24L110.016 114.72H78.912C63.168 114.72 50.208 119.232 40.032 128.256C30.048 137.28 23.808 152.448 21.312 173.76H14.688C15.264 168.192 15.552 160.896 15.552 151.872C15.552 139.008 14.88 124.416 13.536 108.096C26.208 108.672 47.808 108.96 78.336 108.96C116.16 108.96 143.52 108.672 160.416 108.096V113.856Z" fill="white"/>
<path d="M204.32 307.864C229.28 309.784 247.616 315.544 259.328 325.144C271.04 334.744 276.896 346.072 276.896 359.128C276.896 376.984 269.888 390.808 255.872 400.6C241.856 410.2 222.368 415 197.408 415C191.84 415 187.136 414.904 183.296 414.712C170.624 414.328 158.24 414.136 146.144 414.136C126.368 414.136 111.584 414.424 101.792 415V409.24C108.128 408.856 112.736 408.088 115.616 406.936C118.688 405.784 120.704 403.576 121.664 400.312C122.816 397.048 123.392 391.768 123.392 384.472V241.624C123.392 234.328 122.816 229.048 121.664 225.784C120.704 222.52 118.688 220.312 115.616 219.16C112.736 218.008 108.128 217.24 101.792 216.856V211.096C111.584 211.672 126.176 211.96 145.568 211.96L177.536 211.672C181.376 211.48 185.792 211.384 190.784 211.384C213.824 211.384 231.392 215.512 243.488 223.768C255.776 232.024 261.92 242.968 261.92 256.6C261.92 267.736 257.024 278.104 247.232 287.704C237.632 297.304 223.328 303.832 204.32 307.288V307.864ZM187.04 216.856C181.856 216.856 178.016 217.528 175.52 218.872C173.216 220.216 171.584 222.616 170.624 226.072C169.664 229.528 169.184 234.712 169.184 241.624V306.712H181.568C194.048 306.712 202.784 302.488 207.776 294.04C212.768 285.4 215.264 273.976 215.264 259.768C215.264 245.368 212.96 234.616 208.352 227.512C203.936 220.408 196.832 216.856 187.04 216.856ZM189.056 408.376C215.744 408.376 229.088 391.576 229.088 357.976C229.088 342.808 225.248 331.288 217.568 323.416C209.888 315.544 197.792 311.608 181.28 311.608H169.184V384.472C169.184 391.384 169.664 396.472 170.624 399.736C171.584 403 173.408 405.304 176.096 406.648C178.976 407.8 183.296 408.376 189.056 408.376Z" fill="white"/>
<path d="M208.73 111.32C206.237 111.467 204.44 111.76 203.34 112.2C202.24 112.64 201.47 113.483 201.03 114.73C200.663 115.977 200.48 117.993 200.48 120.78V175.34C200.48 178.127 200.663 180.143 201.03 181.39C201.47 182.637 202.24 183.48 203.34 183.92C204.44 184.36 206.237 184.653 208.73 184.8V187C204.77 186.78 199.233 186.67 192.12 186.67C184.273 186.67 178.48 186.78 174.74 187V184.8C177.16 184.653 178.92 184.36 180.02 183.92C181.193 183.48 181.963 182.637 182.33 181.39C182.77 180.143 182.99 178.127 182.99 175.34V120.78C182.99 117.993 182.77 115.977 182.33 114.73C181.963 113.483 181.193 112.64 180.02 112.2C178.92 111.76 177.16 111.467 174.74 111.32V109.12C178.48 109.34 184.273 109.45 192.12 109.45C199.233 109.45 204.77 109.34 208.73 109.12V111.32ZM290.677 182.16C288.697 184.433 286.571 186.047 284.297 187C282.024 188.027 279.274 188.54 276.047 188.54C271.794 188.54 268.421 187.66 265.927 185.9C263.507 184.067 261.931 180.987 261.197 176.66L259.217 165.66C258.264 160.307 257.091 156.383 255.697 153.89C254.377 151.323 252.141 150.04 248.987 150.04H241.837V175.34C241.837 178.127 242.021 180.143 242.387 181.39C242.827 182.637 243.597 183.48 244.697 183.92C245.797 184.36 247.594 184.653 250.087 184.8V187C246.127 186.78 240.591 186.67 233.477 186.67C225.631 186.67 219.837 186.78 216.097 187V184.8C218.517 184.653 220.277 184.36 221.377 183.92C222.551 183.48 223.321 182.637 223.687 181.39C224.127 180.143 224.347 178.127 224.347 175.34V120.78C224.347 117.993 224.127 115.977 223.687 114.73C223.321 113.483 222.551 112.64 221.377 112.2C220.277 111.76 218.517 111.467 216.097 111.32V109.12C219.837 109.34 225.411 109.45 232.817 109.45L245.027 109.34C246.494 109.267 248.181 109.23 250.087 109.23C260.207 109.23 267.797 110.88 272.857 114.18C277.991 117.48 280.557 122.21 280.557 128.37C280.557 133.577 278.651 138.16 274.837 142.12C271.024 146.08 264.717 148.573 255.917 149.6C262.517 150.187 267.431 151.617 270.657 153.89C273.884 156.163 275.974 159.573 276.927 164.12L279.457 175.45C280.044 178.383 280.704 180.437 281.437 181.61C282.244 182.783 283.344 183.37 284.737 183.37C285.617 183.297 286.351 183.077 286.937 182.71C287.597 182.343 288.331 181.72 289.137 180.84L290.677 182.16ZM248.657 111.32C246.677 111.32 245.211 111.577 244.257 112.09C243.377 112.603 242.754 113.52 242.387 114.84C242.021 116.16 241.837 118.14 241.837 120.78V147.84H246.567C252.581 147.84 256.687 146.263 258.887 143.11C261.161 139.883 262.297 135.373 262.297 129.58C262.297 123.567 261.234 119.02 259.107 115.94C256.981 112.86 253.497 111.32 248.657 111.32ZM332.19 107.58C336.59 107.58 340.33 108.203 343.41 109.45C346.49 110.697 349.496 112.457 352.43 114.73C353.236 115.39 353.933 115.72 354.52 115.72C355.986 115.72 356.94 113.52 357.38 109.12H359.91C359.616 114.107 359.47 122.98 359.47 135.74H356.94C356.28 130.313 355.4 126.17 354.3 123.31C353.2 120.45 351.33 117.957 348.69 115.83C346.856 114.07 344.73 112.75 342.31 111.87C339.89 110.917 337.36 110.44 334.72 110.44C327.313 110.44 321.813 114.07 318.22 121.33C314.626 128.517 312.83 137.5 312.83 148.28C312.83 158.987 314.7 167.933 318.44 175.12C322.18 182.307 327.753 185.9 335.16 185.9C337.653 185.9 340.11 185.46 342.53 184.58C345.023 183.627 347.113 182.27 348.8 180.51C351.513 178.457 353.383 175.89 354.41 172.81C355.51 169.73 356.353 165.22 356.94 159.28H359.47C359.47 172.553 359.616 181.793 359.91 187H357.38C357.16 184.653 356.83 183.003 356.39 182.05C356.023 181.023 355.473 180.51 354.74 180.51C354.153 180.51 353.383 180.803 352.43 181.39C349.13 183.737 345.976 185.533 342.97 186.78C339.963 187.953 336.333 188.54 332.08 188.54C324.306 188.54 317.486 186.963 311.62 183.81C305.826 180.657 301.316 176.11 298.09 170.17C294.863 164.157 293.25 157.007 293.25 148.72C293.25 140.653 294.9 133.503 298.2 127.27C301.5 121.037 306.083 116.197 311.95 112.75C317.89 109.303 324.636 107.58 332.19 107.58ZM409.748 107.58C417.521 107.58 424.305 109.157 430.098 112.31C435.965 115.463 440.511 120.047 443.738 126.06C446.965 132 448.578 139.113 448.578 147.4C448.578 155.467 446.928 162.617 443.628 168.85C440.328 175.083 435.708 179.923 429.768 183.37C423.901 186.817 417.191 188.54 409.638 188.54C401.865 188.54 395.045 186.963 389.178 183.81C383.385 180.657 378.875 176.11 375.648 170.17C372.421 164.157 370.808 157.007 370.808 148.72C370.808 140.653 372.458 133.503 375.758 127.27C379.058 121.037 383.641 116.197 389.508 112.75C395.448 109.303 402.195 107.58 409.748 107.58ZM409.308 109.56C405.275 109.56 401.718 111.21 398.638 114.51C395.558 117.737 393.175 122.283 391.488 128.15C389.875 134.017 389.068 140.727 389.068 148.28C389.068 155.907 389.985 162.617 391.818 168.41C393.725 174.203 396.255 178.677 399.408 181.83C402.635 184.983 406.191 186.56 410.078 186.56C414.111 186.56 417.668 184.947 420.748 181.72C423.828 178.42 426.175 173.837 427.788 167.97C429.475 162.103 430.318 155.393 430.318 147.84C430.318 140.213 429.365 133.503 427.458 127.71C425.625 121.917 423.095 117.443 419.868 114.29C416.715 111.137 413.195 109.56 409.308 109.56ZM528.675 111.32C526.255 111.687 524.459 112.31 523.285 113.19C522.185 114.07 521.415 115.463 520.975 117.37C520.609 119.277 520.425 122.1 520.425 125.84V187.22L517.785 187.11L514.815 187.22L467.075 126.72V168.96C467.075 173.287 467.295 176.477 467.735 178.53C468.175 180.51 469.129 181.977 470.595 182.93C472.062 183.81 474.445 184.433 477.745 184.8V187C474.885 186.78 470.925 186.67 465.865 186.67C461.832 186.67 458.642 186.78 456.295 187V184.8C458.715 184.433 460.475 183.81 461.575 182.93C462.749 182.05 463.519 180.657 463.885 178.75C464.325 176.843 464.545 174.02 464.545 170.28V120.78C464.545 117.993 464.325 115.977 463.885 114.73C463.519 113.483 462.749 112.64 461.575 112.2C460.475 111.76 458.715 111.467 456.295 111.32V109.12C458.642 109.34 461.832 109.45 465.865 109.45C469.532 109.45 472.685 109.34 475.325 109.12L517.895 161.59V127.16C517.895 122.833 517.675 119.68 517.235 117.7C516.795 115.647 515.842 114.18 514.375 113.3C512.909 112.347 510.525 111.687 507.225 111.32V109.12C510.085 109.34 514.045 109.45 519.105 109.45C523.212 109.45 526.402 109.34 528.675 109.12V111.32Z" fill="white"/>
<path d="M331.81 212.32C329.39 212.687 327.593 213.31 326.42 214.19C325.32 215.07 324.55 216.463 324.11 218.37C323.743 220.277 323.56 223.1 323.56 226.84V255.99C323.56 266.477 322.057 274.25 319.05 279.31C317.07 282.537 314.21 285.067 310.47 286.9C306.73 288.66 302.147 289.54 296.72 289.54C288.213 289.54 281.613 287.707 276.92 284.04C273.547 281.327 271.273 277.917 270.1 273.81C268.927 269.63 268.34 263.8 268.34 256.32V221.78C268.34 218.993 268.12 216.977 267.68 215.73C267.313 214.483 266.543 213.64 265.37 213.2C264.27 212.76 262.51 212.467 260.09 212.32V210.12C263.83 210.34 269.55 210.45 277.25 210.45C284.877 210.45 290.707 210.34 294.74 210.12V212.32C292.1 212.467 290.157 212.76 288.91 213.2C287.737 213.64 286.93 214.483 286.49 215.73C286.05 216.977 285.83 218.993 285.83 221.78V263.25C285.83 270.95 286.93 276.633 289.13 280.3C291.403 283.893 295.363 285.69 301.01 285.69C308.343 285.69 313.513 283.233 316.52 278.32C319.527 273.333 321.03 266.293 321.03 257.2V228.16C321.03 223.907 320.773 220.753 320.26 218.7C319.747 216.647 318.757 215.18 317.29 214.3C315.823 213.347 313.513 212.687 310.36 212.32V210.12C313.147 210.34 317.107 210.45 322.24 210.45C326.347 210.45 329.537 210.34 331.81 210.12V212.32ZM371.57 212.32C369.077 212.467 367.28 212.76 366.18 213.2C365.08 213.64 364.31 214.483 363.87 215.73C363.503 216.977 363.32 218.993 363.32 221.78V276.34C363.32 279.127 363.503 281.143 363.87 282.39C364.31 283.637 365.08 284.48 366.18 284.92C367.28 285.36 369.077 285.653 371.57 285.8V288C367.61 287.78 362.073 287.67 354.96 287.67C347.113 287.67 341.32 287.78 337.58 288V285.8C340 285.653 341.76 285.36 342.86 284.92C344.033 284.48 344.803 283.637 345.17 282.39C345.61 281.143 345.83 279.127 345.83 276.34V221.78C345.83 218.993 345.61 216.977 345.17 215.73C344.803 214.483 344.033 213.64 342.86 213.2C341.76 212.76 340 212.467 337.58 212.32V210.12C341.32 210.34 347.113 210.45 354.96 210.45C362.073 210.45 367.61 210.34 371.57 210.12V212.32ZM413.587 212.32C410.947 212.467 409.004 212.76 407.757 213.2C406.584 213.64 405.777 214.483 405.337 215.73C404.897 216.977 404.677 218.993 404.677 221.78V277.66C404.677 280.007 404.861 281.73 405.227 282.83C405.594 283.857 406.217 284.553 407.097 284.92C408.051 285.287 409.554 285.47 411.607 285.47H416.997C421.984 285.47 426.274 283.233 429.867 278.76C433.534 274.287 435.917 268.347 437.017 260.94H439.547C439.327 263.433 439.217 266.66 439.217 270.62C439.217 277.66 439.474 283.453 439.987 288C435.001 287.78 426.604 287.67 414.797 287.67C398.811 287.67 386.857 287.78 378.937 288V285.8C381.357 285.653 383.117 285.36 384.217 284.92C385.391 284.48 386.161 283.637 386.527 282.39C386.967 281.143 387.187 279.127 387.187 276.34V221.78C387.187 218.993 386.967 216.977 386.527 215.73C386.161 214.483 385.391 213.64 384.217 213.2C383.117 212.76 381.357 212.467 378.937 212.32V210.12C382.677 210.34 388.471 210.45 396.317 210.45C403.797 210.45 409.554 210.34 413.587 210.12V212.32ZM480.173 210.12C494.473 210.12 505.18 213.383 512.293 219.91C519.407 226.363 522.963 235.787 522.963 248.18C522.963 256.173 521.203 263.177 517.683 269.19C514.237 275.13 509.213 279.75 502.613 283.05C496.087 286.35 488.277 288 479.183 288L472.363 287.89C468.11 287.743 465.03 287.67 463.123 287.67C455.57 287.67 449.923 287.78 446.183 288V285.8C448.603 285.653 450.363 285.36 451.463 284.92C452.637 284.48 453.407 283.637 453.773 282.39C454.213 281.143 454.433 279.127 454.433 276.34V221.78C454.433 218.993 454.213 216.977 453.773 215.73C453.407 214.483 452.637 213.64 451.463 213.2C450.363 212.76 448.603 212.467 446.183 212.32V210.12C449.263 210.34 453.7 210.45 459.493 210.45H462.903L467.303 210.34C473.317 210.193 477.607 210.12 480.173 210.12ZM480.063 212.1C477.79 212.1 476.067 212.357 474.893 212.87C473.793 213.383 473.023 214.3 472.583 215.62C472.143 216.94 471.923 218.92 471.923 221.56V276.56C471.923 279.2 472.143 281.18 472.583 282.5C473.023 283.82 473.793 284.737 474.893 285.25C476.067 285.763 477.827 286.02 480.173 286.02C489.047 286.02 495.353 282.94 499.093 276.78C502.833 270.547 504.703 261.16 504.703 248.62C504.703 236.08 502.76 226.877 498.873 221.01C495.06 215.07 488.79 212.1 480.063 212.1Z" fill="white"/>
<line x1="268" y1="309" x2="528" y2="309" stroke="white" stroke-width="6"/>
<line y1="-3" x2="272.154" y2="-3" transform="matrix(-0.985612 -0.169022 0.163919 -0.986474 531.521 91)" stroke="white" stroke-width="6"/>
<line y1="-3" x2="257.634" y2="-3" transform="matrix(-0.98609 0.16621 -0.161187 -0.986924 268.05 45)" stroke="white" stroke-width="6"/>
</svg>
