<svg width="45" height="73" viewBox="0 0 45 73" fill="none" xmlns="http://www.w3.org/2000/svg">
<path d="M35.28 42.152C37.968 42.472 40.096 43.368 41.664 44.84C43.264 46.312 44.064 48.136 44.064 50.312C44.064 51.976 43.584 53.48 42.624 54.824C41.664 56.168 40.336 57.24 38.64 58.04C36.944 58.808 35.056 59.192 32.976 59.192C32.08 59.192 31.056 59.144 29.904 59.048C29.456 59.016 28.896 58.984 28.224 58.952C27.584 58.92 26.864 58.904 26.064 58.904L22.56 58.952C21.92 58.984 21.056 59 19.968 59C19.872 59 19.824 58.904 19.824 58.712C19.824 58.52 19.872 58.424 19.968 58.424C20.896 58.424 21.6 58.344 22.08 58.184C22.56 57.992 22.896 57.672 23.088 57.224C23.312 56.744 23.424 56.04 23.424 55.112V32.888C23.424 31.544 23.2 30.664 22.752 30.248C22.304 29.8 21.392 29.576 20.016 29.576C19.952 29.576 19.92 29.48 19.92 29.288C19.92 29.096 19.952 29 20.016 29L22.56 29.048C24.032 29.112 25.2 29.144 26.064 29.144C26.96 29.144 27.888 29.096 28.848 29C29.168 28.968 29.648 28.936 30.288 28.904C30.928 28.872 31.488 28.856 31.968 28.856C34.88 28.856 37.136 29.384 38.736 30.44C40.336 31.496 41.136 33.032 41.136 35.048C41.136 36.584 40.624 37.976 39.6 39.224C38.608 40.472 37.168 41.448 35.28 42.152ZM31.248 29.912C30.32 29.912 29.68 30.136 29.328 30.584C28.976 31 28.8 31.8 28.8 32.984V42.104L30.72 42.152C32.384 42.152 33.664 41.528 34.56 40.28C35.456 39.032 35.904 37.432 35.904 35.48C35.904 33.656 35.504 32.28 34.704 31.352C33.904 30.392 32.752 29.912 31.248 29.912ZM32.16 57.992C36.352 57.992 38.448 55.816 38.448 51.464C38.448 49 37.856 47.048 36.672 45.608C35.488 44.168 33.696 43.448 31.296 43.448C30.368 43.448 29.536 43.48 28.8 43.544V55.112C28.8 56.168 29.008 56.92 29.424 57.368C29.84 57.784 30.752 57.992 32.16 57.992Z" fill="white"/>
<path d="M19.728 15.2C19.824 15.04 19.856 14.944 19.824 14.912C19.824 14.848 19.712 14.816 19.488 14.816C15.84 14.816 13.056 14.96 11.136 15.248C9.248 15.504 7.696 16.08 6.48 16.976C5.264 17.84 4.208 19.2 3.312 21.056C3.28 21.088 3.216 21.104 3.12 21.104C2.832 21.104 2.704 21.04 2.736 20.912L4.656 12.56C4.656 12.528 4.72 12.512 4.848 12.512C5.168 12.512 5.296 12.56 5.232 12.656C5.2 12.752 5.184 12.88 5.184 13.04C5.184 13.424 5.36 13.68 5.712 13.808C6.096 13.936 6.848 14 7.968 14H25.488C25.648 14 25.76 14.08 25.824 14.24C25.92 14.4 25.92 14.528 25.824 14.624L9.216 42.704C9.088 42.864 9.04 42.976 9.072 43.04C9.104 43.072 9.216 43.088 9.408 43.088H19.104C20.256 43.088 21.376 42.8 22.464 42.224C23.552 41.616 24.48 40.816 25.248 39.824C26.016 38.832 26.496 37.776 26.688 36.656C26.72 36.56 26.816 36.512 26.976 36.512C27.136 36.512 27.216 36.56 27.216 36.656L26.544 43.616C26.544 43.712 26.496 43.824 26.4 43.952C26.336 44.048 26.24 44.096 26.112 44.096C21.344 44.032 13.68 44 3.12 44C2.992 44 2.896 43.936 2.832 43.808C2.768 43.648 2.784 43.504 2.88 43.376L19.728 15.2Z" fill="white"/>
</svg>
