<svg width="11" height="17" viewBox="0 0 11 17" fill="none" xmlns="http://www.w3.org/2000/svg">
<path d="M8.62439 10.3748C9.28146 10.453 9.80164 10.672 10.1849 11.0318C10.576 11.3917 10.7716 11.8375 10.7716 12.3694C10.7716 12.7762 10.6543 13.1438 10.4196 13.4724C10.1849 13.8009 9.8603 14.0629 9.44572 14.2585C9.03115 14.4462 8.56964 14.5401 8.06119 14.5401C7.84217 14.5401 7.59186 14.5284 7.31026 14.5049C7.20075 14.4971 7.06386 14.4893 6.89959 14.4814C6.74315 14.4736 6.56715 14.4697 6.37159 14.4697L5.51506 14.4814C5.35861 14.4893 5.14741 14.4932 4.88146 14.4932C4.85799 14.4932 4.84626 14.4697 4.84626 14.4228C4.84626 14.3758 4.85799 14.3524 4.88146 14.3524C5.1083 14.3524 5.28039 14.3328 5.39772 14.2937C5.51506 14.2468 5.59719 14.1685 5.64412 14.059C5.69888 13.9417 5.72626 13.7696 5.72626 13.5428V8.11023C5.72626 7.7817 5.6715 7.56659 5.56199 7.4649C5.45248 7.35539 5.22955 7.30063 4.89319 7.30063C4.87755 7.30063 4.86972 7.27716 4.86972 7.23023C4.86972 7.1833 4.87755 7.15983 4.89319 7.15983L5.51506 7.17156C5.87488 7.18721 6.16039 7.19503 6.37159 7.19503C6.59061 7.19503 6.81746 7.1833 7.05212 7.15983C7.13035 7.15201 7.24768 7.14419 7.40412 7.13636C7.56057 7.12854 7.69746 7.12463 7.81479 7.12463C8.52661 7.12463 9.07808 7.2537 9.46919 7.51183C9.8603 7.76996 10.0559 8.14543 10.0559 8.63823C10.0559 9.0137 9.9307 9.35396 9.68039 9.65903C9.4379 9.9641 9.0859 10.2027 8.62439 10.3748ZM7.63879 7.38276C7.41195 7.38276 7.2555 7.43752 7.16946 7.54703C7.08341 7.64872 7.04039 7.84427 7.04039 8.1337V10.363L7.50972 10.3748C7.91648 10.3748 8.22937 10.2222 8.44839 9.91716C8.66741 9.6121 8.77692 9.22099 8.77692 8.74383C8.77692 8.29796 8.67915 7.96161 8.48359 7.73476C8.28804 7.5001 8.00644 7.38276 7.63879 7.38276ZM7.86172 14.2468C8.88644 14.2468 9.39879 13.7149 9.39879 12.651C9.39879 12.0487 9.25408 11.5716 8.96466 11.2196C8.67524 10.8676 8.23719 10.6916 7.65052 10.6916C7.42368 10.6916 7.2203 10.6994 7.04039 10.715V13.5428C7.04039 13.8009 7.09124 13.9847 7.19292 14.0942C7.29461 14.1959 7.51755 14.2468 7.86172 14.2468Z" fill="white"/>
<path d="M4.8224 3.96C4.84587 3.92089 4.85369 3.89742 4.84587 3.8896C4.84587 3.87396 4.81849 3.86613 4.76373 3.86613C3.872 3.86613 3.19147 3.90133 2.72213 3.97173C2.26062 4.03431 1.88124 4.17511 1.584 4.39413C1.28676 4.60533 1.02862 4.93778 0.8096 5.39147C0.801778 5.39929 0.786133 5.4032 0.762667 5.4032C0.692267 5.4032 0.660978 5.38756 0.6688 5.35627L1.13813 3.31467C1.13813 3.30684 1.15378 3.30293 1.18507 3.30293C1.26329 3.30293 1.29458 3.31467 1.27893 3.33813C1.27111 3.3616 1.2672 3.39289 1.2672 3.432C1.2672 3.52587 1.31022 3.58844 1.39627 3.61973C1.49013 3.65102 1.67396 3.66667 1.94773 3.66667H6.2304C6.26951 3.66667 6.29689 3.68622 6.31253 3.72533C6.336 3.76444 6.336 3.79573 6.31253 3.8192L2.2528 10.6832C2.22151 10.7223 2.20978 10.7497 2.2176 10.7653C2.22542 10.7732 2.2528 10.7771 2.29973 10.7771H4.66987C4.95147 10.7771 5.22524 10.7067 5.4912 10.5659C5.75716 10.4172 5.984 10.2217 6.17173 9.9792C6.35947 9.73671 6.4768 9.47858 6.52373 9.2048C6.53156 9.18133 6.55502 9.1696 6.59413 9.1696C6.63324 9.1696 6.6528 9.18133 6.6528 9.2048L6.48853 10.9061C6.48853 10.9296 6.4768 10.957 6.45333 10.9883C6.43769 11.0117 6.41422 11.0235 6.38293 11.0235C5.21742 11.0078 3.344 11 0.762667 11C0.731378 11 0.707911 10.9844 0.692267 10.9531C0.676622 10.914 0.680533 10.8788 0.704 10.8475L4.8224 3.96Z" fill="white"/>
</svg>
